<svg width="21" height="21" viewBox="0 0 21 21" fill="none" xmlns="http://www.w3.org/2000/svg">
<path d="M2.50305 6.384L10.5001 10.382L18.4971 6.384C18.4674 5.87444 18.2441 5.39549 17.8729 5.04523C17.5016 4.69497 17.0105 4.49991 16.5001 4.5H4.50005C3.98964 4.49991 3.4985 4.69497 3.12723 5.04523C2.75596 5.39549 2.53266 5.87444 2.50305 6.384Z" fill="black"/>
<path d="M18.5 8.61816L10.5 12.6182L2.5 8.61816V14.5002C2.5 15.0306 2.71071 15.5393 3.08579 15.9144C3.46086 16.2895 3.96957 16.5002 4.5 16.5002H16.5C17.0304 16.5002 17.5391 16.2895 17.9142 15.9144C18.2893 15.5393 18.5 15.0306 18.5 14.5002V8.61816Z" fill="black"/>
</svg>
